<svg xmlns="http://www.w3.org/2000/svg" width="0.84in" height="0.613333in" viewBox="0 0 252 184">
  <path id="Selection" stroke="black" stroke-width="1"
        d="M 63.00,184.00
           C 63.00,184.00 29.00,184.00 29.00,184.00
             23.03,183.93 17.10,182.70 12.00,179.44
             2.74,173.53 0.08,164.38 0.00,154.00
             0.00,154.00 0.00,82.00 0.00,82.00
             0.00,82.00 0.00,40.00 0.00,40.00
             0.00,31.08 -0.89,22.19 3.40,14.00
             9.38,2.58 20.13,0.02 32.00,0.00
             32.00,0.00 222.00,0.00 222.00,0.00
             241.25,0.23 251.97,10.72 252.00,30.00
             252.00,30.00 252.00,154.00 252.00,154.00
             251.97,174.02 240.59,183.97 221.00,184.00
             221.00,184.00 157.00,184.00 157.00,184.00
             155.02,184.00 151.90,184.12 150.09,183.40
             144.60,181.22 136.14,164.68 129.96,160.60
             125.93,157.93 112.31,159.00 107.00,159.00
             109.04,155.78 116.76,146.85 116.68,144.00
             116.62,141.48 112.71,137.07 111.12,135.00
             111.12,135.00 95.63,115.00 95.63,115.00
             93.56,112.27 90.60,107.68 87.00,107.11
             83.19,106.52 71.19,113.19 67.00,115.00
             67.00,115.00 67.00,89.00 67.00,89.00
             72.82,87.35 86.37,82.04 91.00,78.47
             96.55,74.19 99.73,69.35 104.00,64.00
             104.00,64.00 63.00,64.00 63.00,64.00
             63.00,64.00 63.00,149.00 63.00,149.00
             63.00,149.00 42.00,149.00 42.00,149.00
             42.00,149.00 42.00,42.00 42.00,42.00
             42.00,42.00 105.00,42.00 105.00,42.00
             105.00,42.00 137.00,43.00 137.00,43.00
             137.00,43.00 133.00,56.00 133.00,56.00
             133.00,56.00 218.00,56.00 218.00,56.00
             218.00,56.00 190.80,92.00 190.80,92.00
             190.80,92.00 155.00,138.00 155.00,138.00
             155.00,138.00 231.00,138.00 231.00,138.00
             231.00,138.00 231.00,49.00 231.00,49.00
             231.00,42.88 232.71,26.47 227.77,22.74
             225.09,20.71 221.19,21.01 218.00,21.00
             218.00,21.00 67.00,21.00 67.00,21.00
             67.00,21.00 34.00,21.00 34.00,21.00
             30.81,21.01 26.91,20.71 24.23,22.74
             20.61,25.47 21.01,29.97 21.00,34.00
             21.00,34.00 21.00,133.00 21.00,133.00
             21.00,133.00 21.00,153.00 21.00,153.00
             21.07,156.36 21.18,159.19 24.15,161.40
             26.65,163.27 30.04,162.99 33.00,163.00
             33.00,163.00 63.00,163.00 63.00,163.00
             63.00,163.00 63.00,184.00 63.00,184.00 Z
           M 170.00,77.00
           C 170.00,77.00 129.00,77.00 129.00,77.00
             120.38,77.05 120.80,79.43 115.54,86.00
             113.75,88.24 110.79,90.85 111.45,94.00
             111.97,96.51 121.58,108.18 123.79,111.00
             127.38,115.58 130.49,120.27 135.00,124.00
             135.00,124.00 158.79,93.00 158.79,93.00
             158.79,93.00 170.00,77.00 170.00,77.00 Z
           M 172.96,157.96
           C 181.02,158.02 181.00,158.00 181.00,158.00
             176.06,141.32 154.07,147.07 155.12,162.00
             156.14,176.67 177.84,178.81 181.00,164.00
             181.00,164.00 180.98,164.00 172.96,163.98
             171.96,165.96 168.00,165.98 168.00,165.98
             165.02,165.98 162.95,162.95 163.00,161.00
             163.05,158.70 165.04,156.02 168.00,156.00
             168.00,156.00 172.04,155.96 172.96,157.96 Z
           M 208.00,148.00
           C 208.00,148.00 183.00,148.00 183.00,148.00
             183.00,148.00 183.00,156.00 183.00,156.00
             183.00,156.00 192.00,156.00 192.00,156.00
             192.00,156.00 192.00,174.00 192.00,174.00
             192.00,174.00 199.00,174.00 199.00,174.00
             199.00,174.00 199.00,156.00 199.00,156.00
             199.00,156.00 208.00,156.00 208.00,156.00
             208.00,156.00 208.00,148.00 208.00,148.00 Z
           M 231.00,148.00
           C 231.00,148.00 211.00,148.00 211.00,148.00
             211.00,148.00 211.00,174.00 211.00,174.00
             211.00,174.00 218.00,174.00 218.00,174.00
             218.00,174.00 218.00,166.00 218.00,166.00
             218.00,166.00 229.00,166.00 229.00,166.00
             229.00,166.00 228.00,158.00 228.00,158.00
             228.00,158.00 218.00,158.00 218.00,158.00
             218.00,158.00 218.00,156.00 218.00,156.00
             218.00,156.00 231.00,156.00 231.00,156.00
             231.00,156.00 231.00,148.00 231.00,148.00 Z
           M 171.47,159.96M 174.04,160.00" />
</svg>
