<svg xmlns="http://www.w3.org/2000/svg"><symbol viewBox="0 0 512 512" id="adjust"><path d="M8 256c0 136.966 111.033 248 248 248s248-111.034 248-248S392.966 8 256 8 8 119.033 8 256zm248 184V72c101.705.0 184 82.311 184 184 0 101.705-82.311 184-184 184z"/></symbol><symbol viewBox="0 0 448 512" id="angle-double-right"><path d="M224.3 273l-136 136c-9.4 9.4-24.6 9.4-33.9.0l-22.6-22.6c-9.4-9.4-9.4-24.6.0-33.9l96.4-96.4-96.4-96.4c-9.4-9.4-9.4-24.6.0-33.9L54.3 103c9.4-9.4 24.6-9.4 33.9.0l136 136c9.5 9.4 9.5 24.6.1 34zm192-34-136-136c-9.4-9.4-24.6-9.4-33.9.0l-22.6 22.6c-9.4 9.4-9.4 24.6.0 33.9l96.4 96.4-96.4 96.4c-9.4 9.4-9.4 24.6.0 33.9l22.6 22.6c9.4 9.4 24.6 9.4 33.9.0l136-136c9.4-9.2 9.4-24.4.0-33.8z"/></symbol><symbol viewBox="0 0 256 512" id="angle-right"><path d="M224.3 273l-136 136c-9.4 9.4-24.6 9.4-33.9.0l-22.6-22.6c-9.4-9.4-9.4-24.6.0-33.9l96.4-96.4-96.4-96.4c-9.4-9.4-9.4-24.6.0-33.9L54.3 103c9.4-9.4 24.6-9.4 33.9.0l136 136c9.5 9.4 9.5 24.6.1 34z"/></symbol><symbol viewBox="0 0 320 512" id="caret-down"><path d="M31.3 192h257.3c17.8.0 26.7 21.5 14.1 34.1L174.1 354.8c-7.8 7.8-20.5 7.8-28.3.0L17.2 226.1C4.6 213.5 13.5 192 31.3 192z"/></symbol><symbol viewBox="0 0 448 512" id="hashtag"><path d="M440.667 182.109l7.143-40c1.313-7.355-4.342-14.109-11.813-14.109h-74.81l14.623-81.891C377.123 38.754 371.468 32 363.997 32h-40.632a12 12 0 00-11.813 9.891L296.175 128H197.54l14.623-81.891C213.477 38.754 207.822 32 200.35 32h-40.632a12 12 0 00-11.813 9.891L132.528 128H53.432a12 12 0 00-11.813 9.891l-7.143 40C33.163 185.246 38.818 192 46.289 192h74.81L98.242 320H19.146a12 12 0 00-11.813 9.891l-7.143 40C-1.123 377.246 4.532 384 12.003 384h74.81L72.19 465.891C70.877 473.246 76.532 480 84.003 480h40.632a12 12 0 0011.813-9.891L151.826 384h98.634l-14.623 81.891C234.523 473.246 240.178 480 247.65 480h40.632a12 12 0 0011.813-9.891L315.472 384h79.096a12 12 0 0011.813-9.891l7.143-40c1.313-7.355-4.342-14.109-11.813-14.109h-74.81l22.857-128h79.096a12 12 0 0011.813-9.891zM261.889 320h-98.634l22.857-128h98.634l-22.857 128z"/></symbol><symbol viewBox="0 0 512 512" id="search"><path d="M505 442.7 405.3 343c-4.5-4.5-10.6-7-17-7H372c27.6-35.3 44-79.7 44-128C416 93.1 322.9.0 208 0S0 93.1.0 208s93.1 208 208 208c48.3.0 92.7-16.4 128-44v16.3c0 6.4 2.5 12.5 7 17l99.7 99.7c9.4 9.4 24.6 9.4 33.9.0l28.3-28.3c9.4-9.4 9.4-24.6.1-34zM208 336c-70.7.0-128-57.2-128-128 0-70.7 57.2-128 128-128 70.7.0 128 57.2 128 128 0 70.7-57.2 128-128 128z"/></symbol><symbol viewBox="0 0 496 512" id="github"><path d="M165.9 397.4c0 2-2.3 3.6-5.2 3.6-3.3.3-5.6-1.3-5.6-3.6.0-2 2.3-3.6 5.2-3.6 3-.3 5.6 1.3 5.6 3.6zm-31.1-4.5c-.7 2 1.3 4.3 4.3 4.9 2.6 1 5.6.0 6.2-2s-1.3-4.3-4.3-5.2c-2.6-.7-5.5.3-6.2 2.3zm44.2-1.7c-2.9.7-4.9 2.6-4.6 4.9.3 2 2.9 3.3 5.9 2.6 2.9-.7 4.9-2.6 4.6-4.6-.3-1.9-3-3.2-5.9-2.9zM244.8 8C106.1 8 0 113.3.0 252c0 110.9 69.8 205.8 169.5 239.2 12.8 2.3 17.3-5.6 17.3-12.1.0-6.2-.3-40.4-.3-61.4.0.0-70 15-84.7-29.8.0.0-11.4-29.1-27.8-36.6.0.0-22.9-15.7 1.6-15.4.0.0 24.9 2 38.6 25.8 21.9 38.6 58.6 27.5 72.9 20.9 2.3-16 8.8-27.1 16-33.7-55.9-6.2-112.3-14.3-112.3-110.5.0-27.5 7.6-41.3 23.6-58.9-2.6-6.5-11.1-33.3 2.6-67.9 20.9-6.5 69 27 69 27 20-5.6 41.5-8.5 62.8-8.5s42.8 2.9 62.8 8.5c0 0 48.1-33.6 69-27 13.7 34.7 5.2 61.4 2.6 67.9 16 17.7 25.8 31.5 25.8 58.9.0 96.5-58.9 104.2-114.8 110.5 9.2 7.9 17 22.9 17 46.4.0 33.7-.3 75.4-.3 83.6.0 6.5 4.6 14.4 17.3 12.1C428.2 457.8 496 362.9 496 252 496 113.3 383.5 8 244.8 8zM97.2 352.9c-1.3 1-1 3.3.7 5.2 1.6 1.6 3.9 2.3 5.2 1 1.3-1 1-3.3-.7-5.2-1.6-1.6-3.9-2.3-5.2-1zm-10.8-8.1c-.7 1.3.3 2.9 2.3 3.9 1.6 1 3.6.7 4.3-.7.7-1.3-.3-2.9-2.3-3.9-2-.6-3.6-.3-4.3.7zm32.4 35.6c-1.6 1.3-1 4.3 1.3 6.2 2.3 2.3 5.2 2.6 6.5 1 1.3-1.3.7-4.3-1.3-6.2-2.2-2.3-5.2-2.6-6.5-1zm-11.4-14.7c-1.6 1-1.6 3.6.0 5.9 1.6 2.3 4.3 3.3 5.6 2.3 1.6-1.3 1.6-3.9.0-6.2-1.4-2.3-4-3.3-5.6-2z"/></symbol><symbol viewBox="0 0 448 512" id="linkedin"><path d="M416 32H31.9C14.3 32 0 46.5.0 64.3v383.4C0 465.5 14.3 480 31.9 480H416c17.6.0 32-14.5 32-32.3V64.3c0-17.8-14.4-32.3-32-32.3zM135.4 416H69V202.2h66.5V416zm-33.2-243c-21.3.0-38.5-17.3-38.5-38.5S80.9 96 102.2 96c21.2.0 38.5 17.3 38.5 38.5.0 21.3-17.2 38.5-38.5 38.5zm282.1 243h-66.4V312c0-24.8-.5-56.7-34.5-56.7-34.6.0-39.9 27-39.9 54.9V416h-66.4V202.2h63.7v29.2h.9c8.9-16.8 30.6-34.5 62.9-34.5 67.2.0 79.7 44.3 79.7 101.9V416z"/></symbol><symbol viewBox="0 0 512 512" id="twitter"><path d="M459.37 151.716c.325 4.548.325 9.097.325 13.645.0 138.72-105.583 298.558-298.558 298.558-59.452.0-114.68-17.219-161.137-47.106 8.447.974 16.568 1.299 25.34 1.299 49.055.0 94.213-16.568 130.274-44.832-46.132-.975-84.792-31.188-98.112-72.772 6.498.974 12.995 1.624 19.818 1.624 9.421.0 18.843-1.3 27.614-3.573-48.081-9.747-84.143-51.98-84.143-102.985v-1.299c13.969 7.797 30.214 12.67 47.431 13.319-28.264-18.843-46.781-51.005-46.781-87.391.0-19.492 5.197-37.36 14.294-52.954 51.655 63.675 129.3 105.258 216.365 109.807-1.624-7.797-2.599-15.918-2.599-24.04.0-57.828 46.782-104.934 104.934-104.934 30.213.0 57.502 12.67 76.67 33.137 23.715-4.548 46.456-13.32 66.599-25.34-7.798 24.366-24.366 44.833-46.132 57.827 21.117-2.273 41.584-8.122 60.426-16.243-14.292 20.791-32.161 39.308-52.628 54.253z"/></symbol><symbol viewBox="0 0 235.3 295.3" id="root-me"><g transform="matrix(1,0,0,1,-180,-100)"><path fill="#000" d="m299.2 319.9s0 0 0 0c-.1-.1-.2-.2-.2-.3-.1-.1-.1-.1-.2-.2-.1.0-.1-.1-.2-.1-.1-.1-.2-.1-.3-.2-.1.0-.2-.1-.3-.1s-.2-.1-.2-.1c-.1.0-.2.0-.3-.1-.1.0-.2.0-.3.0s-.2.0-.3.0-.2.0-.3.0-.2.0-.3.0-.2.0-.3.1c-.1.0-.2.1-.2.1-.1.0-.2.1-.3.1s-.2.1-.3.2c-.1.0-.1.1-.2.1-.1.1-.1.1-.2.2-.1.1-.2.2-.2.2s0 0 0 0l-8.1 10.1c-1 1.3-.8 3.1.5 4.1.5.4 1.2.6 1.8.6.9.0 1.7-.4 2.3-1.1l.1-.1c3-3.7 8.6-3.7 11.5.0l.1.1c.6.7 1.4 1.1 2.3 1.1.6.0 1.3-.2 1.8-.6 1.3-1 1.5-2.9.5-4.1z"/><path fill="#000" d="m285.7 149.1c-4.1.0-7.5 3.2-7.7 7.3l-15.3 5.6c-.8.3-1.4 1-1.4 1.9v9.7H249c-.9-3.3-3.8-5.7-7.4-5.7-4.2.0-7.7 3.4-7.7 7.7.0 4.2 3.4 7.7 7.7 7.7 3.6.0 6.5-2.4 7.4-5.7h14.3c1.1.0 2-.9 2-2v-10.3l13.5-5c1.3 2.5 3.9 4.2 6.8 4.2 4.2.0 7.7-3.4 7.7-7.7.1-4.2-3.4-7.7-7.6-7.7z"/><path fill="#000" d="m269.5 292.3c-2.5-.9-4.9-1.8-7.2-2.8-1.7-.8-3.4-1.6-5-2.4 3.8 3.8 13 10.6 22.9 10.8.6-.7 1.1-1.4 1.5-2.3-1.5-.3-3-.6-4.5-1-2.7-.7-5.2-1.4-7.7-2.3z" class="st0"/><path fill="#000" d="m395 222.5c0-4.7-.3-9.4-1-13.9.0-.3-.1-.6-.1-.9-6.1-39.7-36.2-72.3-75.8-81-1-4.5-5-7.9-9.8-7.9-5.6.0-10.1 4.5-10.1 10.1.0 4.8 3.4 8.8 7.9 9.8v36.9c0 .6.3 1.2.8 1.6.3.2.7.3 1.1.3.2.0.5.0.7-.1l14.8-5.6c1 1.5 2.5 2.5 4.3 3v17.4c-7.5 9.2-16.8 17.5-26.7 24.9l-11.3-26.2c2.1-1.4 3.5-3.7 3.5-6.4.0-4.2-3.4-7.7-7.7-7.7-4.2.0-7.7 3.4-7.7 7.7.0 4.2 3.4 7.7 7.7 7.7.1.0.3.0.4.0l11.8 27.3c-6.9 5-14 9.5-21 13.6L243.2 223c-.4-.1-.8-.1-1.2.1l-10 3.9c-1.4-1.9-3.6-3.1-6.2-3.1-4.2.0-7.7 3.4-7.7 7.7.0 4.2 3.4 7.7 7.7 7.7 4.2.0 7.7-3.4 7.7-7.7.0-.3-.1-.6-.1-.9l9.4-3.7 29.3 8.8c-25 14-47.4 22.1-51.1 23.4l-1.8.6c-1.6-1.2-3.6-1.9-5.8-1.9-.1.0-.2.0-.3.0-4.7-11.1-7.1-23.2-7.1-35.3.0-6 .6-11.9 1.7-17.6h43.9c.9 3.3 3.8 5.7 7.4 5.7 4.2.0 7.7-3.4 7.7-7.7.0-4.2-3.4-7.7-7.7-7.7-3.6.0-6.5 2.4-7.4 5.7h-43c8.1-32.9 34.1-59.2 67.7-67 1.8 2.9 5 4.9 8.6 4.9 5.6.0 10.1-4.5 10.1-10.1s-4.5-10.1-10.1-10.1c-4.9.0-8.9 3.5-9.9 8-44.1 10-76.4 49.7-76.4 95.7.0 13.1 2.6 26.2 7.7 38.2-1.9 1.8-3 4.4-3 7.2.0 4.5 2.9 8.2 6.9 9.6v39.4c0 .7.2 1.4.6 2l2.2 1.5 29.9 21.1v25.2c0 2.1 1.7 3.8 3.8 3.8h1e2c2.1.0 3.8-1.7 3.8-3.8v-25.2l30-21.1 2.2-1.6c.4-.6.6-1.3.6-2V277c3.7-1.5 6.3-5.1 6.3-9.3.0-2.6-1-5-2.6-6.8 5.3-11.9 8-25.1 8-38.4zM281.4 125.6c.9-1 2.2-1.6 3.6-1.6 2.7.0 4.9 2.2 4.9 4.9.0 2.7-2.2 4.9-4.9 4.9-1 0-1.9-.3-2.7-.8-1.3-.9-2.2-2.4-2.2-4 0-1.4.5-2.6 1.3-3.4zm22 3.2c0-2.7 2.2-4.9 4.9-4.9 1.4.0 2.6.6 3.5 1.5.8.9 1.3 2 1.3 3.3.0 1.6-.8 3.1-2.1 4-.8.6-1.7.9-2.8.9-2.6.1-4.8-2.1-4.8-4.8zm18.8 38.5c0 .3.1.5.1.7l-12.2 4.6v-34c3-.5 5.5-2.3 6.9-4.8 10.7 2.4 20.7 6.7 29.6 12.6-.1 14.8-5.8 28.4-14.8 40.7v-12.4c3.3-.9 5.7-3.8 5.7-7.4.0-4.2-3.4-7.7-7.7-7.7-4.2.1-7.6 3.5-7.6 7.7zM213.5 272.7c-1.2.0-2.3-.5-3.2-1.2-1-.9-1.7-2.2-1.7-3.6.0-.6.1-1.2.3-1.7.7-1.8 2.5-3.1 4.5-3.1.9.0 1.7.3 2.4.7 1.4.8 2.4 2.4 2.4 4.2.0.9-.3 1.7-.7 2.4-.7 1.4-2.2 2.3-4 2.3zm170-1.9c-.9 1.1-2.3 1.9-3.8 1.9-1.4.0-2.6-.6-3.5-1.5-.8-.9-1.3-2-1.3-3.3.0-2.1 1.3-3.9 3.2-4.5.5-.2 1.1-.3 1.7-.3 2.3.0 4.3 1.7 4.8 3.9.1.3.1.6.1 1-.2 1-.6 2-1.2 2.8zm-3-13c-.3.0-.6.0-.9.0-5.6.0-10.1 4.5-10.1 10.1.0 4.3 2.7 8 6.6 9.4v36.8l-31.5 22.2c-1 .7-1.6 1.9-1.6 3.1v21.2c0 1.2-1 2.2-2.2 2.2h-11.7c-1.2.0-2.2-1-2.2-2.2V353c0-2-1.4-3.8-3.4-4-2.3-.2-4.2 1.6-4.2 3.8v7.9c0 1.2-1 2.2-2.2 2.2h-14.3c-1.2.0-2.2-1-2.2-2.2V349c0-2-1.4-3.8-3.4-4-2.3-.2-4.2 1.6-4.2 3.8v12c0 1.2-1 2.2-2.2 2.2h-14.3c-1.2.0-2.2-1-2.2-2.2V353c0-2-1.4-3.8-3.4-4-2.3-.2-4.2 1.6-4.2 3.8v7.9c0 1.2-1 2.2-2.2 2.2h-11.7c-1.2.0-2.2-1-2.2-2.2v-21.2c0-1.2-.6-2.4-1.6-3.1L217.6 314.2V277c3.5-1.6 5.9-5.1 5.9-9.2.0-.6-.1-1.2-.2-1.8 4-1.4 34.5-12.3 64.5-31 40.6-25.3 63.1-54 65.7-83.5 17.5 14.1 29.6 34.5 33.1 57.4-.5 50.1-87.8 81-88.7 81.3-.2.1-.7.2-1.1.4-1.1-.2-2.2-.4-3.4-.6-.8-.2-1.7-.3-2.5-.5-1.3-.2-2.6-.5-3.9-.8-.2-.1-.5-.1-.7-.1-.5-.1-1-.2-1.5-.3-.6-.1-1.2-.3-1.8-.4-1.4-.3-2.8-.6-4.1-1-2.5-.6-4.9-1.3-7.3-1.9-2.3-.7-4.7-1.3-6.9-2-.1.0-.1.0-.2.0-1.7-.5-3.3-1-4.9-1.6-.5-.2-1.1-.4-1.6-.5-.8-.3-1.5-.5-2.2-.7-1.3-.4-2.5-.8-3.6-1.3h-.1c-1.8-.6-3.4-1.2-4.8-1.8-1.5-.6-2.8-1.1-3.8-1.5-1-.5-1.9-.8-2.4-1.1-.6-.3-.9-.4-.9-.4s.2.3.6.7c.4.5 1 1.2 1.9 2 .8.8 1.9 1.8 3.2 2.8 1.3 1 2.8 2.1 4.4 3.2h.1c-.6 2-1 4.2-1 6.4.0 11.5 9.4 20.9 20.9 20.9 8.9.0 16.5-5.6 19.5-13.5 1 .1 2.1.2 3.1.3 1.8.1 3.5.1 5.1.1.1.0.2.1.3.1l16.9 17.2c4.3 4.3 11 5 16 1.7l26.4-14.8c2.3-1.5 3.8-4.1 3.8-6.9v-30.4c10.2-8.1 19.4-17.7 25.4-28.6-1.1 7.9-3.2 15.4-6.3 22.5zm-98.8 37.8c-.4.8-1 1.6-1.5 2.3v0c-2.4 2.8-6 4.6-10 4.6s-7.6-1.8-10-4.6c-2-2.3-3.1-5.3-3.1-8.5.0-.8.1-1.5.2-2.3 1.6.8 3.3 1.6 5 2.4 2.3 1 4.7 2 7.2 2.8 2.5.9 5.1 1.6 7.7 2.3 1.5.4 3 .7 4.5 1z"/></g></symbol><symbol viewBox="0 0 252 184" id="ringzer0"><path id="Selection" stroke="#000" stroke-width="1" d="M63 184s-34 0-34 0C23.03 183.93 17.1 182.7 12 179.44 2.74 173.53.08 164.38.0 154V82S0 40 0 40c0-8.92-.89-17.81 3.4-26C9.38 2.58 20.13.02 32 0H222c19.25.23 29.97 10.72 30 30V154C251.97 174.02 240.59 183.97 221 184H157C155.02 184 151.9 184.12 150.09 183.4 144.6 181.22 136.14 164.68 129.96 160.6 125.93 157.93 112.31 159 107 159 109.04 155.78 116.76 146.85 116.68 144 116.62 141.48 112.71 137.07 111.12 135L95.63 115C93.56 112.27 90.6 107.68 87 107.11 83.19 106.52 71.19 113.19 67 115V89C72.82 87.35 86.37 82.04 91 78.47 96.55 74.19 99.73 69.35 104 64H63s0 85 0 85-21 0-21 0S42 42 42 42s63 0 63 0 32 1 32 1-4 13-4 13 85 0 85 0-27.2 36-27.2 36S155 138 155 138s76 0 76 0 0-89 0-89C231 42.88 232.71 26.47 227.77 22.74 225.09 20.71 221.19 21.01 218 21H67s-33 0-33 0C30.81 21.01 26.91 20.71 24.23 22.74 20.61 25.47 21.01 29.97 21 34v99s0 20 0 20C21.07 156.36 21.18 159.19 24.15 161.4 26.65 163.27 30.04 162.99 33 163H63s0 21 0 21zM170 77s-41 0-41 0C120.38 77.05 120.8 79.43 115.54 86 113.75 88.24 110.79 90.85 111.45 94 111.97 96.51 121.58 108.18 123.79 111 127.38 115.58 130.49 120.27 135 124l23.79-31S170 77 170 77zM172.96 157.96C181.02 158.02 181 158 181 158c-4.94-16.68-26.93-10.93-25.88 4C156.14 176.67 177.84 178.81 181 164 181 164 180.98 164 172.96 163.98 171.96 165.96 168 165.98 168 165.98 165.02 165.98 162.95 162.95 163 161 163.05 158.7 165.04 156.02 168 156 168 156 172.04 155.96 172.96 157.96zM208 148s-25 0-25 0 0 8 0 8 9 0 9 0 0 18 0 18 7 0 7 0 0-18 0-18 9 0 9 0 0-8 0-8zm23 0s-20 0-20 0 0 26 0 26 7 0 7 0 0-8 0-8 11 0 11 0-1-8-1-8-10 0-10 0 0-2 0-2 13 0 13 0 0-8 0-8zm-59.53 11.96M174.04 160"/></symbol><symbol viewBox="0 0 108 131" id="pentesterlab"><path id="Selection" fill="#000" stroke="#000" stroke-width="1" d="M49 9C44.01 3.18 48.01-.69 53 1.13c2.99 1.08 11.86 7.68 15 9.85l28 19.3c3.3 2.3 13.22 7.43 11.34 12.41C106.33 45.37 103.15 44.43 100.32 46.6 98.35 48.11 93.98 54.64 92.29 57L68.71 90C65.81 94.07 59.51 103.68 55.91 106.3L12 127S42 128.83 42 128.83 59 131 59 131s-59 0-59 0S3.91 86 3.91 86 5.26 71 5.26 71 18.28 51 18.28 51 37.42 24 37.42 24 49 9 49 9zm7 4c-5.52 4.6-21.57 27.92-26 35h6C48.78 48.15 55.81 53.38 64 54.5 68.01 55.04 71.11 53.79 75 53.29 77.54 52.96 82.87 53.21 84.7 52.43 88.67 50.73 92.91 43.01 94 39L56 13zm8.05 25.96C71.54 39.25 70.75 46.75 65.95 47.63 61.07 48.52 57.27 42.45 64.05 38.96zM43.09 62.58C36.5 65.31 41.24 71.03 44.87 69.6 47.84 68.43 49.33 63.27 43.09 62.58zm12.02 2.91c-7.57 3.39-2.39 11.25 2.78 9.67C62.65 73.7 63.6 65.44 55.11 65.49zm-9.85 9.42C41.94 77.22 44.37 79.37 45.98 79.09 47.66 78.79 49.53 75.91 45.26 74.91zM13 76s-2.09 16-2.09 16S9 114 9 114c4.46-1.5 5.63-4.27 8.29-8C21.23 100.48 27.4 93.48 29 87H17s-4-11-4-11z"/></symbol><symbol viewBox="0 0 24 24" id="hackthebox"><path fill="#000" stroke="#000" stroke-width=".2" d="M11.9959 8e-4a1.1187 1.1187.0 00-.057.002.8993.8993.0 00-.2358.0498.9067.9067.0 00-.1652.079L1.9357 5.675a.889.889.0 00-.4444.7699c0 .006 4e-4.0128 6e-4.0192-2e-4.007.0.014.0.0212V17.556a.889.889.0 00.469.7837l9.5983 5.5416c.018.0102.036.0197.054.0287v.002a.8568.8568.0 00.083.0348c0 .001.01.003.012.004.028.01.056.0177.085.0245.01.001.011.003.016.004.028.006.057.0112.086.0146.0 5e-4.01 9e-4.014.001.03.003.061.005.091.005s.061-.002.091-.005c0-5e-4.01-9e-4.014-.001a.6831.6831.0 00.086-.0146c.01-.001.011-.002.016-.004a.9404.9404.0 00.085-.0245c0-.001.01-.003.012-.004a.8818.8818.0 00.083-.0347v-.002a1.086 1.086.0 00.054-.0287l9.5986-5.5416a.889.889.0 00.4689-.7837V6.4786c0-.009-6e-4-.0172-8e-4-.0258h3e-4v-.008a.8886.8886.0 00-.3117-.6755c-.01-.008-.019-.0162-.029-.0241.0-.002-.01-.005-.01-.007a.8988.8988.0 00-.1074-.0705L12.4533.1267a.8872.8872.0 00-.4646-.1266zm.01 2.2523c.072.0.1443.0187.209.056l6.5366 3.774c.2789.161.2789.5633.0.7243l-6.5367 3.774a.4182.4182.0 01-.4182.0L5.26 6.8074c-.2788-.1609-.2789-.5633.0-.7243l6.5368-3.774a.4193.4193.0 01.209-.056zm-8.0801 6.458a.4145.4145.0 01.215.0565l6.524 3.7666a.417.417.0 01.2086.3612v7.5326c0 .3212-.3477.522-.626.3613l-6.5237-3.7666a.4172.4172.0 01-.2086-.3613V9.1288c0-.2408.1955-.414.4107-.4177zm16.1599.0c.215.004.4107.1768.4107.4177v7.5325c0 .149-.08.2868-.2087.3614l-6.5239 3.7666c-.278.1606-.6258-.0401-.6258-.3614v-7.5325c0-.149.08-.2867.2086-.3613l6.5238-3.7666a.415.415.0 01.2152-.0565z"/></symbol></svg>